# xmcd
#
# Track frame offsets:
#  150
#  14923
#  30221
#  42893
#  55417
#  73640
#  90513
#  103562
#  117661
#  130333
#  147496
#  163936
#  177947
#  190776
#  205002
#  217537
#  229663
#  245833
#  259309
#  274528
#
# Disc length: 3908 seconds
#
# Revision: 0
# Processed by: cddbd v1.5.1PL2 Copyright (c) Steve Scherf et al.
# Submitted via: Collectorz.com_Music_Collector 6.9
#
DISCID=230f4214
DTITLE=Mary MacGregor - Torn Between To Lovers and Mary MacGregor
DYEAR=1900
DGENRE=
TTITLE0=Torn Between To Lovers - Mama
TTITLE1=Torn Between To Lovers - This Girl (Has Turned Into A Woman)
TTITLE2=Torn Between To Lovers - Good Together
TTITLE3=Torn Between To Lovers - It's To Soon (To Let Our Love End)
TTITLE4=Torn Between To Lovers - Why Did You Wait (To Tell Me)
TTITLE5=Torn Between To Lovers - The Lady I Am
TTITLE6=Torn Between To Lovers - For A While
TTITLE7=Torn Between To Lovers - I Just Want To Love You
TTITLE8=Torn Between To Lovers - Take Your Love Away
TTITLE9=Torn Between To Lovers - Torn Between To Lovers
TTITLE10=Mary MacGregor - Dancin' Like Lovers
TTITLE11=Mary MacGregor - You're Just Between Lovers
TTITLE12=Mary MacGregor - Somebody Please
TTITLE13=Mary MacGregor - Love, What Took You So Long
TTITLE14=Mary MacGregor - Anything But Yes Is Still A No
TTITLE15=Mary MacGregor - Good friend
TTITLE16=Mary MacGregor - Randy
TTITLE17=Mary MacGregor - I Can't Hold On
TTITLE18=Mary MacGregor - Dominoes
TTITLE19=Mary MacGregor - Never Give Up
EXTD=
EXTT0=
EXTT1=
EXTT2=
EXTT3=
EXTT4=
EXTT5=
EXTT6=
EXTT7=
EXTT8=
EXTT9=
EXTT10=
EXTT11=
EXTT12=
EXTT13=
EXTT14=
EXTT15=
EXTT16=
EXTT17=
EXTT18=
EXTT19=
PLAYORDER=
